<?xml version="1.0" encoding="utf-8"?>
<!-- Generator: Adobe Illustrator 18.1.1, SVG Export Plug-In . SVG Version: 6.00 Build 0)  -->
<svg version="1.1" id="svg-source" xmlns="http://www.w3.org/2000/svg" xmlns:xlink="http://www.w3.org/1999/xlink" x="0px" y="0px"
	 viewBox="449 -83 55 57" enable-background="new 449 -83 55 57" xml:space="preserve">
<g id="cart">
	<g id="Cart">
		<g>
			<path d="M492.5-71.4c-0.1-0.5-0.7-0.9-1.2-0.7l-4,1c-0.4,0.1-0.7,0.4-0.7,0.8l-0.5,3.2l-24.6,3c0,0,0,0-0.1,0c0,0,0,0-0.1,0
				c-0.1,0-0.1,0-0.1,0.1c-0.1,0-0.1,0-0.2,0.1c-0.1,0-0.1,0.1-0.2,0.2c0,0-0.1,0-0.1,0.1c0,0,0,0,0,0c-0.1,0.1-0.1,0.2-0.1,0.3
				c0,0,0,0.1,0,0.1c0,0.1,0,0.3,0,0.4l3,12l1,4c0,0,0,0.1,0,0.1c0,0,0,0.1,0.1,0.1c0,0.1,0.1,0.1,0.1,0.2c0,0,0.1,0.1,0.1,0.1
				c0.1,0.1,0.1,0.1,0.2,0.1c0,0,0.1,0,0.1,0.1c0.1,0,0.2,0.1,0.4,0.1h21c0.6,0,1-0.4,1-1c0-0.6-0.4-1-1-1h-20.2l-0.5-2h18.7
				c0.1,0,0.2,0,0.4-0.1c0,0,0.1,0,0.1-0.1c0.1,0,0.1-0.1,0.2-0.1c0,0,0.1-0.1,0.1-0.1c0-0.1,0.1-0.1,0.1-0.2c0-0.1,0-0.1,0.1-0.2
				c0-0.1,0-0.1,0.1-0.2l0,0v0v0l2.9-18.3l3.4-0.8C492.3-70.3,492.6-70.8,492.5-71.4z M465.3-52.1l-2.5-10.1l3.1-0.4l1.5,10.5H465.3
				z M469.4-52.1l-1.5-10.8l3.1-0.4l0.5,11.1H469.4z M475.5-52.1h-2.1l-0.5-11.4l3.1-0.4L475.5-52.1z M479.6-52.1h-2.1l0.5-12
				l3.1-0.4L479.6-52.1z M483.6-52.1h-2l1.6-12.6l2.1-0.3L483.6-52.1z M469.5-44.1c-1.1,0-2,0.9-2,2c0,1.1,0.9,2,2,2
				c1.1,0,2-0.9,2-2C471.5-43.2,470.6-44.1,469.5-44.1z M482.5-44.1c-1.1,0-2,0.9-2,2c0,1.1,0.9,2,2,2c1.1,0,2-0.9,2-2
				C484.5-43.2,483.6-44.1,482.5-44.1z"/>
		</g>
	</g>
</g>
</svg>
