<?xml version="1.0" encoding="utf-8"?>
<!-- Generator: Adobe Illustrator 18.1.1, SVG Export Plug-In . SVG Version: 6.00 Build 0)  -->
<svg version="1.1" id="svg-source" xmlns="http://www.w3.org/2000/svg" xmlns:xlink="http://www.w3.org/1999/xlink" x="0px" y="0px"
	 viewBox="190 -83 61 57" enable-background="new 190 -83 61 57" xml:space="preserve">
<g id="diamond">
	<g>
		<rect x="219.9" y="-66.1" width="1" height="2.3"/>
		<rect x="230.1" y="-65.6" transform="matrix(-0.7911 -0.6116 0.6116 -0.7911 452.5682 25.3758)" width="1" height="2.1"/>
		<rect x="209.8" y="-65.7" transform="matrix(0.7913 -0.6114 0.6114 0.7913 83.416 115.1097)" width="1" height="2.1"/>
		<g>
			<path d="M228.8-61.5h-16.6l-3.3,4.7l11.7,16.3l11.7-16.3L228.8-61.5z M220.5-60.5l2.6,3.7h-5.2L220.5-60.5L220.5-60.5z
				 M216.6-56.8L216.6-56.8l-2.6-3.7h5.2L216.6-56.8z M223.7-55.8l-3.2,12.7l-3.2-12.7L223.7-55.8L223.7-55.8z M224.3-56.8l-2.6-3.7
				h5.2L224.3-56.8L224.3-56.8z M212.7-60.5L212.7-60.5l2.6,3.7h-5.2L212.7-60.5z M216.2-55.8l3,11.8l-8.4-11.8H216.2L216.2-55.8z
				 M221.8-44l3-11.8h5.4L221.8-44z M225.7-56.8l2.6-3.7h0l2.6,3.7H225.7z"/>
		</g>
		<rect x="220" y="-38.2" width="1" height="2.3"/>
		<rect x="225.4" y="-43.4" transform="matrix(0.6038 -0.7971 0.7971 0.6038 123.3161 163.3087)" width="1" height="2.1"/>
		<rect x="230" y="-49.8" transform="matrix(0.6033 -0.7975 0.7975 0.6033 130.3437 164.4915)" width="1" height="2.1"/>
		<rect x="214.5" y="-43.4" transform="matrix(-0.603 -0.7977 0.7977 -0.603 378.4691 103.5385)" width="1" height="2.1"/>
		<rect x="209.9" y="-49.8" transform="matrix(-0.6033 -0.7975 0.7975 -0.6033 376.2817 89.6108)" width="1" height="2.1"/>
		<rect x="204.5" y="-56.9" width="2.1" height="1"/>
		<rect x="234.4" y="-56.9" width="2.1" height="1"/>
	</g>
</g>
</svg>
