<?xml version="1.0" encoding="utf-8"?>
<!-- Generator: Adobe Illustrator 18.1.1, SVG Export Plug-In . SVG Version: 6.00 Build 0)  -->
<svg version="1.1" id="svg-source" xmlns="http://www.w3.org/2000/svg" xmlns:xlink="http://www.w3.org/1999/xlink" x="0px" y="0px"
	 viewBox="393.9 234.3 40 43.9" enable-background="new 393.9 234.3 40 43.9" xml:space="preserve">
<g id="diamond">
	<g id="Diamond">
		<g>
			<path d="M429.8,252.1C429.8,252.1,429.8,252.1,429.8,252.1c0-0.2-0.1-0.4-0.3-0.6l-7.9-10.9c-0.1-0.1-0.1-0.1-0.2-0.2
				c0,0,0,0-0.1,0c-0.1-0.1-0.2-0.1-0.3-0.1c0,0,0,0,0,0c0,0,0,0,0,0c-0.1,0-0.1,0-0.2,0h-14c-0.1,0-0.1,0-0.2,0c0,0,0,0,0,0
				c0,0,0,0,0,0c-0.1,0-0.2,0.1-0.3,0.1c0,0,0,0-0.1,0c-0.1,0.1-0.1,0.1-0.2,0.2l-8,11c0,0,0,0.1,0,0.1c0,0,0,0-0.1,0.1c0,0,0,0,0,0
				c0,0,0,0.1,0,0.1c0,0,0,0.1,0,0.1c0,0,0,0.1,0,0.1c0,0,0,0.1,0,0.1c0,0,0,0.1,0,0.1c0,0,0,0.1,0,0.1c0,0,0,0,0,0
				c0,0,0,0.1,0.1,0.1c0,0,0,0.1,0,0.1l15,19c0,0,0,0,0.1,0c0,0,0.1,0.1,0.1,0.1c0,0,0.1,0,0.1,0c0,0,0,0,0,0c0,0,0.1,0,0.1,0.1
				c0,0,0.1,0,0.1,0c0,0,0,0,0,0c0.1,0,0.1,0,0.2,0c0,0,0,0,0,0h0c0,0,0,0,0,0c0.1,0,0.1,0,0.2,0c0,0,0,0,0,0c0,0,0.1,0,0.1,0
				c0,0,0.1,0,0.1-0.1c0,0,0,0,0,0c0,0,0.1,0,0.1,0c0,0,0.1-0.1,0.1-0.1c0,0,0,0,0.1,0l14.9-18.9c0.2-0.2,0.3-0.4,0.3-0.7
				C429.9,252.2,429.8,252.2,429.8,252.1z M419.6,242.3l-2.1,9h-7.3l-2.1-9H419.6z M406.4,243.6l1.8,7.6h-7.3L406.4,243.6z
				 M400.9,253.3h7.7l3.2,13.9L400.9,253.3z M413.9,266.9l-3.2-13.6h6.3L413.9,266.9z M415.8,267.1l3.2-13.9h7.7L415.8,267.1z
				 M419.5,251.3l1.8-7.6l5.6,7.6H419.5z"/>
		</g>
	</g>
</g>
</svg>
