<?xml version="1.0" encoding="utf-8"?>
<!-- Generator: Adobe Illustrator 18.1.1, SVG Export Plug-In . SVG Version: 6.00 Build 0)  -->
<svg version="1.1" id="svg-source" xmlns="http://www.w3.org/2000/svg" xmlns:xlink="http://www.w3.org/1999/xlink" x="0px" y="0px"
	 viewBox="277 -83 58 57" enable-background="new 277 -83 58 57" xml:space="preserve">
<g id="love-more">
	<g>
		<path d="M294.8-55.7c-0.6-1.3-2.8-1.7-3.5-0.3c-0.6,1.2,0.3,3,1,3.9c0.6,0.8,1.6,1.6,2.6,2c0.9-0.5,1.9-1.2,2.6-2
			c0.7-0.9,1.6-2.7,1-3.9C297.6-57.4,295.5-57,294.8-55.7z"/>
		<path d="M306-55.7c-0.6-1.3-2.8-1.7-3.5-0.3c-0.6,1.2,0.3,3,1,3.9c0.6,0.8,1.6,1.6,2.6,2c0.9-0.5,1.9-1.2,2.6-2
			c0.7-0.9,1.6-2.7,1-3.9C308.8-57.4,306.6-57,306-55.7z"/>
		<path d="M320.7-56c-0.8-1.4-2.9-1.1-3.5,0.3c-0.6-1.3-2.8-1.7-3.5-0.3c-0.6,1.2,0.3,3,1,3.9c0.6,0.8,1.6,1.6,2.6,2
			c0.9-0.5,1.9-1.2,2.6-2C320.4-53,321.3-54.8,320.7-56z"/>
	</g>
</g>
</svg>
