<?xml version="1.0" encoding="utf-8"?>
<!-- Generator: Adobe Illustrator 18.1.1, SVG Export Plug-In . SVG Version: 6.00 Build 0)  -->
<svg version="1.1" id="svg-source" xmlns="http://www.w3.org/2000/svg" xmlns:xlink="http://www.w3.org/1999/xlink" x="0px" y="0px"
	 viewBox="144 -75 57 52" enable-background="new 144 -75 57 52" xml:space="preserve">
<g id="sale">
	<path fill="#EAD3D7" d="M153.4-46.9l13.1,13.1c1.1,1.1,2.8,1.1,3.8,0l12.9-12.7c1.4-1.4,1.4-4.3,1.4-5v-10.8c0-1.5-1.1-2.7-2.6-2.7
		l-11.4,0c-1.8,0-3.2,0.5-4.5,1.8l-12.7,12.5C152.3-49.6,152.3-47.9,153.4-46.9z"/>
	<path d="M178.1-56c-1.4,0-2.5-1.1-2.5-2.5c0-1.4,1.1-2.5,2.5-2.5s2.5,1.1,2.5,2.5C180.6-57.1,179.5-56,178.1-56z"/>
	<path fill="#AD9F63" d="M178.1-60c0.8,0,1.5,0.7,1.5,1.5c0,0.8-0.7,1.5-1.5,1.5c-0.8,0-1.5-0.7-1.5-1.5
		C176.6-59.3,177.2-60,178.1-60z"/>
	<path fill="#AD9F63" d="M169.3-42l1.4-1l-2.8-12l-1.4,1L169.3-42z M162.3-46.2c0.4,0.2,0.8,0.2,1.2,0.1s0.8-0.3,1.2-0.6
		c0.6-0.5,0.9-1,0.9-1.6c0-0.6-0.2-1.2-0.7-1.7c-0.5-0.5-1-0.8-1.6-0.9c-0.6,0-1.2,0.2-1.8,0.7c-0.4,0.3-0.6,0.7-0.8,1.1
		c-0.1,0.4-0.2,0.8,0,1.2c0.1,0.4,0.3,0.8,0.6,1.1C161.5-46.6,161.9-46.4,162.3-46.2z M162-49c0-0.2,0-0.3,0.2-0.5
		c0.2-0.1,0.3-0.2,0.5-0.1c0.3,0.1,0.6,0.3,0.9,0.7c0.3,0.4,0.5,0.7,0.6,1c0,0.2,0,0.3-0.2,0.5c-0.2,0.1-0.3,0.2-0.5,0.1
		c-0.3-0.1-0.6-0.3-0.9-0.7C162.2-48.4,162-48.8,162-49z M173.3-46.2c0.4,0.2,0.8,0.2,1.2,0.1c0.4-0.1,0.8-0.3,1.2-0.6
		c0.6-0.5,0.9-1,0.9-1.7s-0.2-1.2-0.7-1.8c-0.5-0.6-1-0.9-1.6-0.9c-0.6,0-1.2,0.2-1.8,0.7c-0.4,0.3-0.6,0.7-0.8,1.1
		c-0.1,0.4-0.2,0.8,0,1.2c0.1,0.4,0.3,0.8,0.6,1.1C172.5-46.6,172.9-46.3,173.3-46.2z M173-49.1c0-0.2,0-0.3,0.2-0.5
		c0.2-0.1,0.3-0.2,0.5-0.1c0.3,0.1,0.6,0.3,0.9,0.7c0.3,0.4,0.5,0.7,0.6,1c0,0.2,0,0.3-0.2,0.5c-0.2,0.1-0.3,0.2-0.5,0.1
		c-0.3-0.1-0.6-0.3-0.9-0.7C173.2-48.4,173-48.8,173-49.1z"/>
</g>
</svg>
