<?xml version="1.0" encoding="utf-8"?>
<!-- Generator: Adobe Illustrator 18.1.1, SVG Export Plug-In . SVG Version: 6.00 Build 0)  -->
<svg version="1.1" id="svg-source" xmlns="http://www.w3.org/2000/svg" xmlns:xlink="http://www.w3.org/1999/xlink" x="0px" y="0px"
	 viewBox="-14 -80 57 57" enable-background="new -14 -80 57 57" xml:space="preserve">
<g id="snowflake-10">
	<g>
		<polygon fill="#FFFFFF" points="20.7,-64.4 18.4,-57.8 13.8,-52.4 16.1,-59.1 		"/>
		<polygon fill="#FFFFFF" points="12.5,-50.3 10.2,-43.7 5.6,-38.3 7.9,-45 		"/>
		<polygon fill="#FFFFFF" points="28.2,-51.3 21.3,-50 14.4,-51.3 21.3,-52.7 		"/>
		<polygon fill="#FFFFFF" points="11.9,-51.4 5,-50 -1.9,-51.4 5,-52.7 		"/>
		<polygon fill="#FFFFFF" points="20.6,-38.3 16.1,-43.6 13.7,-50.3 18.4,-44.9 		"/>
		<polygon fill="#FFFFFF" points="12.5,-52.5 7.9,-57.7 5.6,-64.4 10.2,-59 		"/>
		<path fill="#FFFFFF" d="M28.8-54.3c-0.1-0.7-0.3-1.3-0.5-2L25-57.1l2.4-1.4c-0.3-0.6-0.6-1.1-0.9-1.6l-2.5,1.4l1-3.4
			c-0.5-0.5-0.9-1-1.5-1.5l-1.3,5.9l-7.6,4.4c-0.2-0.1-0.4-0.3-0.6-0.4v-8.9l4.4-4.1c-0.6-0.2-1.3-0.4-2-0.6L14-64.7v-2.8h-1.9v2.9
			l-2.5-2.6c-0.7,0.1-1.3,0.3-2,0.6l4.5,4.2v8.8c-0.2,0.1-0.5,0.2-0.7,0.4l-7.7-4.4l-1.4-5.9c-0.5,0.5-1,0.9-1.5,1.5l1,3.4l-2.5-1.4
			c-0.3,0.5-0.6,1.1-0.9,1.6L1-57.2l-3.3,0.8c-0.2,0.6-0.4,1.3-0.5,2l5.6-1.7l7.8,4.5c0,0,0,0.1,0,0.1c0,0.1,0,0.3,0,0.4l-7.6,4.4
			l-5.9-1.8c0.1,0.7,0.3,1.4,0.5,2l3.6,0.9l-2.5,1.4l0.9,1.6L2.2-44l-1,3.4c0.5,0.5,1,1,1.5,1.4L4-45.1l7.7-4.4
			c0.2,0.1,0.3,0.2,0.5,0.3v8.8l-4.5,4.1c0.6,0.2,1.3,0.4,2,0.6l2.5-2.5v2.9c0.2,0,0.3,0,0.5,0h0.6c0.3,0,0.5,0,0.8,0v-2.8l2.4,2.4
			c0.7-0.1,1.3-0.3,2-0.6l-4.3-4v-8.9c0.1-0.1,0.2-0.1,0.3-0.2l7.7,4.4l1.3,5.8c0.5-0.4,1-0.9,1.5-1.4L23.9-44l2.4,1.4
			c0.3-0.5,0.7-1.1,0.9-1.6l-2.5-1.4l3.4-0.9c0.2-0.6,0.4-1.3,0.5-2L23-46.7l-7.6-4.4c0-0.1,0-0.3,0-0.4c0,0,0-0.1,0-0.1l7.8-4.5
			L28.8-54.3z M13.1-50.5c-0.5,0-1-0.4-1-1c0-0.5,0.4-1,1-1c0.5,0,1,0.4,1,1C14-50.9,13.6-50.5,13.1-50.5z"/>
	</g>
</g>
</svg>
