<?xml version="1.0" encoding="utf-8"?>
<!-- Generator: Adobe Illustrator 18.1.1, SVG Export Plug-In . SVG Version: 6.00 Build 0)  -->
<svg version="1.1" id="svg-source" xmlns="http://www.w3.org/2000/svg" xmlns:xlink="http://www.w3.org/1999/xlink" x="0px" y="0px"
	 viewBox="59 -80 59 57" enable-background="new 59 -80 59 57" xml:space="preserve">
<g id="gift">
	<g id="Icons">
		<path d="M93.1-60.9c0.5-0.3,1.1-0.5,1.6-0.9c0.9-0.6,2.9-2.1,2.9-3.8c0-0.6-0.3-1.1-0.8-1.4c-1.3-0.9-4-0.2-6.4,1.4
			c-0.5,0.3-1.3,0.9-1.9,1.6c-0.6-0.7-1.4-1.3-1.9-1.6c-2.4-1.6-5.1-2.3-6.4-1.4c-0.5,0.3-0.8,0.8-0.8,1.4c0,1.6,2,3.2,2.9,3.8
			c0.5,0.3,1,0.6,1.6,0.9h-8.2v25.5h25.5v-25.5H93.1z M99.3-50.1h-8.8v-8.8h8.8V-50.1z M91.5-63.9c1.5-1,3-1.5,3.8-1.5
			c0.1,0,0.1,0,0.2,0c-0.2,0.4-0.7,1.1-2,1.9c-1.5,1-3,1.5-3.8,1.5c-0.1,0-0.1,0-0.2,0C89.7-62.3,90.3-63.1,91.5-63.9z M81.5-65.3
			c0,0,0.1,0,0.2,0c0.8,0,2.3,0.5,3.8,1.5c1.2,0.8,1.8,1.5,2,1.9c-0.6,0.1-2.3-0.4-4-1.5C82.2-64.2,81.7-65,81.5-65.3z M86.5-58.9
			v8.8h-8.8v-8.8H86.5z M77.7-46.1h8.8v8.8h-8.8V-46.1z M90.5-37.3v-8.8h8.8v8.8H90.5z"/>
	</g>
</g>
</svg>
