<?xml version="1.0" encoding="utf-8"?>
<!-- Generator: Adobe Illustrator 18.1.1, SVG Export Plug-In . SVG Version: 6.00 Build 0)  -->
<svg version="1.1" id="Layer_1" xmlns="http://www.w3.org/2000/svg" xmlns:xlink="http://www.w3.org/1999/xlink" x="0px" y="0px"
	 viewBox="0 0 137.3 23.3" enable-background="new 0 0 137.3 23.3" xml:space="preserve">
<g>
	<g>
		<circle cx="61.9" cy="12.5" r="3.9"/>
		<g>
			<path fill="#FFFFFF" d="M62.4,14.8c-0.1,0.2-0.1,0.4-0.1,0.4c0,0.1,0,0.2,0,0.3c0,0.1,0,0.2,0.1,0.3c0.1,0.2,0.3,0.2,0.5,0
				c0.2-0.1,0.4-0.3,0.7-0.5c0.3-0.3,0.5-0.5,0.6-0.7c0,0,0,0,0.1,0c0.1,0,0.1,0,0,0.1c-0.1,0.2-0.2,0.4-0.5,0.6
				c-0.2,0.3-0.4,0.5-0.6,0.6c-0.2,0.2-0.4,0.2-0.6,0.2c-0.4,0-0.7-0.2-0.7-0.7c0,0,0,0,0-0.1c0-0.4,0.2-1.1,0.6-2
				c0.4-0.9,0.7-1.5,1-2l0.3-0.4c0.1-0.1,0.2-0.2,0.3-0.3c0.2-0.2,0.5-0.4,0.7-0.4c0.2,0,0.4,0.1,0.5,0.2c0,0.1,0,0.1,0,0.2
				c0,0.1,0,0.3-0.1,0.4C64.6,12.5,63.7,13.6,62.4,14.8z M64.9,11.2c0.1-0.1,0.1-0.2,0.1-0.3c0-0.1,0-0.2-0.1-0.2
				c-0.1,0-0.2,0-0.3,0.1c-0.5,0.4-0.9,1-1.3,1.8c-0.3,0.7-0.6,1.2-0.8,1.7c0.4-0.3,0.8-0.8,1.3-1.4C64.3,12.3,64.7,11.7,64.9,11.2z
				"/>
		</g>
		<g>
			<defs>
				<circle id="SVGID_1_" cx="61.9" cy="12.5" r="3.9"/>
			</defs>
			<clipPath id="SVGID_2_">
				<use xlink:href="#SVGID_1_"  overflow="visible"/>
			</clipPath>
			<g clip-path="url(#SVGID_2_)">
				<path fill="#FFFFFF" d="M59,8.6h0.4v5.5h3.2v0.4H59V8.6z"/>
			</g>
		</g>
	</g>
	<g>
		<path d="M5,17.1c0.2,0,0.4-0.1,0.6-0.3c0.2-0.2,0.3-0.4,0.3-0.6V8.6c0-0.2-0.1-0.4-0.3-0.6C5.4,7.9,5.2,7.8,5,7.8H4.8V7.6h3v0.1
			H7.6c-0.3,0-0.6,0.1-0.8,0.4C6.8,8.3,6.8,8.5,6.8,8.6v8.2h2c0.7,0,1.2-0.2,1.6-0.5c0.4-0.3,0.7-0.8,0.9-1.3h0.1l-0.8,2.2H4.8v-0.1
			H5z"/>
		<path d="M13.7,8.8c0.9-0.9,2.1-1.4,3.6-1.4c1.5,0,2.7,0.5,3.6,1.4c0.9,0.9,1.4,2.1,1.4,3.6c0,1.5-0.5,2.7-1.4,3.6
			c-0.9,0.9-2.1,1.4-3.6,1.4c-1.5,0-2.7-0.5-3.6-1.4c-0.9-0.9-1.4-2.1-1.4-3.6C12.4,11,12.8,9.7,13.7,8.8z M14.5,15.8
			c0.7,0.8,1.6,1.3,2.8,1.3s2.1-0.4,2.8-1.3c0.7-0.8,1.1-1.9,1.1-3.3c0-0.9-0.2-1.7-0.5-2.4c-0.3-0.7-0.8-1.2-1.4-1.6
			c-0.6-0.4-1.3-0.6-2-0.6c-1.2,0-2.1,0.4-2.8,1.3c-0.7,0.8-1.1,1.9-1.1,3.3C13.4,13.8,13.8,14.9,14.5,15.8z"/>
		<path d="M32.8,7.8h-0.1c-0.3,0-0.6,0.1-0.9,0.4c-0.1,0.1-0.3,0.3-0.3,0.5L28.1,16c-0.3,0.7-0.5,1.2-0.5,1.4h-0.1l-3.9-8.8
			c-0.1-0.3-0.3-0.5-0.5-0.7c-0.2-0.1-0.5-0.2-0.7-0.2h-0.1V7.6h3.1v0.1h-0.1c-0.3,0-0.5,0.1-0.5,0.4c0,0.1,0,0.1,0,0.2
			c0,0.1,0,0.2,0.1,0.3l2.9,7.2l3-7.2c0-0.1,0.1-0.2,0.1-0.3c0-0.1,0-0.2-0.1-0.3c-0.1-0.1-0.2-0.2-0.4-0.2H30V7.6h2.8V7.8z"/>
		<path d="M33.6,17.1c0.2,0,0.4-0.1,0.6-0.3c0.2-0.2,0.3-0.4,0.3-0.6V8.6c0-0.2-0.1-0.4-0.3-0.6c-0.2-0.2-0.4-0.2-0.6-0.2h-0.2
			l0-0.1h4c0.3,0,0.6,0,0.9-0.1c0.3-0.1,0.6-0.1,0.7-0.2v1.7h-0.1V8.9c0-0.2-0.1-0.4-0.2-0.6c-0.2-0.2-0.3-0.2-0.5-0.2h-2.8v4.2h2.3
			c0.2,0,0.3-0.1,0.5-0.2c0.1-0.1,0.2-0.3,0.2-0.5v-0.2h0.1v2.2h-0.1v-0.2c0-0.2-0.1-0.3-0.2-0.5c-0.1-0.1-0.3-0.2-0.5-0.2h-2.3v4.1
			h2c0.7,0,1.2-0.2,1.6-0.5c0.4-0.3,0.7-0.8,0.9-1.3h0.1l-0.8,2.2h-5.7v-0.1H33.6z"/>
		<path d="M41.4,17.1c0.2,0,0.4-0.1,0.6-0.3c0.2-0.2,0.3-0.4,0.3-0.6V8.6c0-0.2-0.1-0.4-0.3-0.6c-0.2-0.2-0.4-0.3-0.6-0.3h-0.2V7.6
			h3v0.1H44c-0.3,0-0.6,0.1-0.8,0.4c-0.1,0.1-0.1,0.3-0.1,0.4v8.2h2c0.7,0,1.2-0.2,1.6-0.5c0.4-0.3,0.7-0.8,0.9-1.3h0.1l-0.8,2.2
			h-5.7v-0.1H41.4z"/>
		<path d="M55.8,7.8h-0.2c-0.3,0-0.5,0.1-0.8,0.2c-0.2,0.2-0.4,0.3-0.6,0.6L51.6,13v3.3c0,0.2,0.1,0.4,0.3,0.6
			c0.2,0.2,0.4,0.3,0.6,0.3h0.2v0.1h-3v-0.1h0.2c0.2,0,0.4-0.1,0.6-0.2c0.2-0.2,0.3-0.4,0.3-0.6V13L48,8.6c-0.1-0.2-0.3-0.4-0.6-0.6
			c-0.3-0.2-0.5-0.2-0.8-0.2h-0.2V7.6h3.4v0.1h-0.2c-0.2,0-0.4,0.1-0.5,0.3c-0.1,0.1-0.1,0.2-0.1,0.3s0,0.2,0.1,0.3l2.1,3.8l2.2-3.9
			c0-0.1,0.1-0.2,0.1-0.3c0-0.1,0-0.2-0.1-0.3c-0.1-0.2-0.3-0.3-0.5-0.3h-0.2V7.6h3V7.8z"/>
		<path d="M69.3,17.1c0.2,0,0.4-0.1,0.6-0.3c0.2-0.2,0.3-0.4,0.3-0.6V8.6c0-0.2-0.1-0.4-0.3-0.6c-0.2-0.2-0.4-0.3-0.6-0.3h-0.2V7.6
			h3v0.1H72c-0.3,0-0.6,0.1-0.8,0.4c-0.1,0.1-0.1,0.3-0.1,0.4v8.2h2c0.7,0,1.2-0.2,1.6-0.5s0.7-0.8,0.9-1.3h0.1l-0.8,2.2h-5.7v-0.1
			H69.3z"/>
		<path d="M85.9,7.8h-0.2c-0.2,0-0.4,0.1-0.5,0.2C85,8.1,85,8.2,85,8.4v5.4c0,1.1-0.3,1.9-1,2.6c-0.7,0.7-1.6,1-2.7,1
			c-1.1,0-2-0.3-2.7-1c-0.7-0.7-1.1-1.5-1.1-2.6V8.5c0-0.3-0.1-0.5-0.4-0.6c-0.1-0.1-0.2-0.1-0.4-0.1h-0.2V7.6h2.8v0.1h-0.2
			c-0.2,0-0.4,0.1-0.5,0.2c-0.1,0.1-0.2,0.3-0.2,0.5v5.2c0,1,0.3,1.8,0.8,2.4c0.5,0.6,1.3,0.9,2.1,0.9c0.9,0,1.6-0.3,2.2-0.9
			c0.6-0.6,0.8-1.3,0.8-2.3V8.4c0-0.2-0.1-0.3-0.2-0.5c-0.1-0.1-0.3-0.2-0.5-0.2h-0.2V7.6h2.5V7.8z"/>
		<path d="M88.6,16.1c-0.9-0.9-1.4-2.1-1.4-3.6s0.5-2.7,1.4-3.6c0.9-0.9,2.1-1.4,3.6-1.4c1.2,0,2.3,0.3,3.3,0.9l0.3,1.9h-0.1
			c-0.2-0.8-0.6-1.4-1.2-1.8c-0.6-0.4-1.3-0.6-2.2-0.6c-1.2,0-2.2,0.4-2.9,1.2c-0.7,0.8-1.1,1.9-1.1,3.3c0,1.4,0.4,2.5,1.1,3.3
			c0.7,0.8,1.6,1.3,2.8,1.3c1,0,1.9-0.3,2.6-0.8c0.7-0.6,1.2-1.6,1.3-3h0.1L96,15.4c-0.8,1.4-2.1,2-3.9,2
			C90.7,17.4,89.5,17,88.6,16.1z"/>
		<path d="M97.8,17.1c0.2,0,0.4-0.1,0.6-0.3c0.2-0.2,0.3-0.4,0.3-0.6V8.6c0-0.2-0.1-0.4-0.3-0.6c-0.2-0.2-0.4-0.2-0.6-0.2h-0.2V7.6
			h3v0.1h-0.2c-0.2,0-0.4,0.1-0.6,0.2c-0.2,0.2-0.3,0.4-0.3,0.6v7.6c0,0.2,0.1,0.4,0.3,0.6c0.2,0.2,0.4,0.3,0.6,0.3h0.2v0.1h-3v-0.1
			H97.8z"/>
		<path d="M111.3,17.1h0.1v0.1h-3.1v-0.1h0.1c0.2,0,0.3-0.1,0.4-0.2c0.1-0.1,0.1-0.2,0.1-0.3c0-0.1,0-0.2-0.1-0.3l-0.9-2.3h-3.7
			l-0.9,2.3c0,0.1-0.1,0.2-0.1,0.3c0,0.1,0,0.2,0.1,0.3c0.1,0.1,0.2,0.2,0.4,0.2h0.1v0.1h-2.8v-0.1h0.1c0.2,0,0.5-0.1,0.7-0.2
			c0.2-0.1,0.4-0.4,0.5-0.6l3.1-7.4c0.3-0.7,0.5-1.2,0.5-1.4h0.1l3.7,8.8c0.1,0.3,0.3,0.5,0.5,0.6C110.8,17,111,17.1,111.3,17.1z
			 M104.5,13.5h3.4l-1.6-4.4L104.5,13.5z"/>
		<path d="M121.9,7.8c-0.2,0-0.4,0.1-0.6,0.2c-0.2,0.2-0.3,0.4-0.3,0.6v7.1c0,0.5,0,1,0.1,1.5l0,0.2h-0.1l-7.5-8v6.8
			c0,0.3,0.2,0.6,0.4,0.7c0.1,0.1,0.3,0.1,0.4,0.1h0.3v0.1h-2.8v-0.1h0.3c0.2,0,0.4-0.1,0.6-0.2c0.2-0.2,0.2-0.4,0.2-0.6V9.1
			c0-0.6,0-1.1-0.1-1.5l0-0.2h0.1l7.5,8V8.6c0-0.2-0.1-0.4-0.3-0.6c-0.2-0.2-0.4-0.2-0.6-0.2h-0.3V7.6h2.8v0.1H121.9z"/>
		<path d="M124.8,8.8c0.9-0.9,2.1-1.4,3.6-1.4c1.5,0,2.7,0.5,3.6,1.4c0.9,0.9,1.4,2.1,1.4,3.6c0,1.5-0.5,2.7-1.4,3.6
			c-0.9,0.9-2.1,1.4-3.6,1.4c-1.5,0-2.7-0.5-3.6-1.4c-0.9-0.9-1.4-2.1-1.4-3.6C123.5,11,123.9,9.7,124.8,8.8z M125.6,15.8
			c0.7,0.8,1.6,1.3,2.8,1.3c1.2,0,2.1-0.4,2.8-1.3c0.7-0.8,1.1-1.9,1.1-3.3c0-0.9-0.2-1.7-0.5-2.4c-0.3-0.7-0.8-1.2-1.4-1.6
			c-0.6-0.4-1.3-0.6-2-0.6c-1.2,0-2.1,0.4-2.8,1.3c-0.7,0.8-1.1,1.9-1.1,3.3C124.5,13.8,124.9,14.9,125.6,15.8z"/>
	</g>
</g>
</svg>
