<?xml version="1.0" encoding="utf-8"?>
<!-- Generator: Adobe Illustrator 18.1.1, SVG Export Plug-In . SVG Version: 6.00 Build 0)  -->
<svg version="1.1" id="Layer_1" xmlns="http://www.w3.org/2000/svg" xmlns:xlink="http://www.w3.org/1999/xlink" x="0px" y="0px"
	 viewBox="0 0 14.7 13.5" enable-background="new 0 0 14.7 13.5" xml:space="preserve">
<circle cx="7.2" cy="6.9" r="4.6"/>
<g>
	<path fill="#FFFFFF" d="M7.8,9.6c-0.1,0.2-0.1,0.4-0.1,0.5c0,0.1,0,0.2,0,0.3c0,0.1,0,0.3,0.1,0.4c0.1,0.2,0.3,0.2,0.6,0
		c0.2-0.1,0.5-0.3,0.8-0.6C9.4,10,9.7,9.7,9.8,9.4c0,0,0,0,0.1,0c0.1,0,0.1,0,0.1,0.1C9.8,9.7,9.7,10,9.4,10.3
		c-0.3,0.3-0.5,0.6-0.7,0.7c-0.2,0.2-0.4,0.3-0.7,0.3c-0.5,0-0.8-0.3-0.8-0.8c0,0,0,0,0-0.1c0-0.5,0.3-1.3,0.7-2.3
		c0.5-1,0.9-1.8,1.2-2.4l0.3-0.4c0.1-0.1,0.2-0.2,0.3-0.4c0.3-0.3,0.5-0.4,0.8-0.4c0.3,0,0.5,0.1,0.6,0.3c0,0.1,0.1,0.2,0.1,0.3
		c0,0.1-0.1,0.3-0.2,0.5C10.4,6.9,9.3,8.3,7.8,9.6z M10.8,5.4c0.1-0.2,0.1-0.3,0.1-0.4c0-0.2-0.1-0.2-0.2-0.2
		c-0.1,0-0.2,0.1-0.4,0.2C9.9,5.5,9.4,6.2,8.8,7.2C8.4,8,8.1,8.6,7.9,9.2c0.5-0.3,1-0.9,1.6-1.7C10.1,6.7,10.5,6,10.8,5.4z"/>
</g>
<g>
	<defs>
		<circle id="SVGID_1_" cx="7.2" cy="6.9" r="4.6"/>
	</defs>
	<clipPath id="SVGID_2_">
		<use xlink:href="#SVGID_1_"  overflow="visible"/>
	</clipPath>
	<g clip-path="url(#SVGID_2_)">
		<path fill="#FFFFFF" d="M3.8,2.3h0.5v6.5H8v0.4H3.8V2.3z"/>
	</g>
</g>
</svg>
